<mxfile host="app.diagrams.net" agent="Mozilla/5.0 (Windows NT 10.0; Win64; x64) AppleWebKit/537.36 (KHTML, like Gecko) Chrome/130.0.0.0 Safari/537.36" version="24.8.4">
  <diagram id="C5RBs43oDa-KdzZeNtuy" name="Page-1">
    <mxGraphModel dx="880" dy="468" grid="1" gridSize="10" guides="1" tooltips="1" connect="1" arrows="1" fold="1" page="1" pageScale="1" pageWidth="827" pageHeight="1169" math="0" shadow="0">
      <root>
        <mxCell id="WIyWlLk6GJQsqaUBKTNV-0" />
        <mxCell id="WIyWlLk6GJQsqaUBKTNV-1" parent="WIyWlLk6GJQsqaUBKTNV-0" />
        <mxCell id="_O6d0NfKqS-Rmpa7_qdL-2" value="" style="edgeStyle=orthogonalEdgeStyle;rounded=0;orthogonalLoop=1;jettySize=auto;html=1;" edge="1" parent="WIyWlLk6GJQsqaUBKTNV-1" source="_O6d0NfKqS-Rmpa7_qdL-0" target="_O6d0NfKqS-Rmpa7_qdL-1">
          <mxGeometry relative="1" as="geometry" />
        </mxCell>
        <mxCell id="_O6d0NfKqS-Rmpa7_qdL-0" value="Inicio" style="ellipse;whiteSpace=wrap;html=1;" vertex="1" parent="WIyWlLk6GJQsqaUBKTNV-1">
          <mxGeometry x="330" y="60" width="120" height="80" as="geometry" />
        </mxCell>
        <mxCell id="_O6d0NfKqS-Rmpa7_qdL-4" value="" style="edgeStyle=orthogonalEdgeStyle;rounded=0;orthogonalLoop=1;jettySize=auto;html=1;" edge="1" parent="WIyWlLk6GJQsqaUBKTNV-1" source="_O6d0NfKqS-Rmpa7_qdL-1" target="_O6d0NfKqS-Rmpa7_qdL-3">
          <mxGeometry relative="1" as="geometry" />
        </mxCell>
        <mxCell id="_O6d0NfKqS-Rmpa7_qdL-1" value="&amp;nbsp;mostrar msje: Por favor, ingrese la edad del cliente:" style="shape=parallelogram;perimeter=parallelogramPerimeter;whiteSpace=wrap;html=1;fixedSize=1;fillColor=#fff2cc;strokeColor=#d6b656;" vertex="1" parent="WIyWlLk6GJQsqaUBKTNV-1">
          <mxGeometry x="310" y="240" width="160" height="80" as="geometry" />
        </mxCell>
        <mxCell id="_O6d0NfKqS-Rmpa7_qdL-6" value="SI" style="edgeStyle=orthogonalEdgeStyle;rounded=0;orthogonalLoop=1;jettySize=auto;html=1;" edge="1" parent="WIyWlLk6GJQsqaUBKTNV-1" source="_O6d0NfKqS-Rmpa7_qdL-3" target="_O6d0NfKqS-Rmpa7_qdL-5">
          <mxGeometry relative="1" as="geometry" />
        </mxCell>
        <mxCell id="_O6d0NfKqS-Rmpa7_qdL-8" value="NO" style="edgeStyle=orthogonalEdgeStyle;rounded=0;orthogonalLoop=1;jettySize=auto;html=1;" edge="1" parent="WIyWlLk6GJQsqaUBKTNV-1" source="_O6d0NfKqS-Rmpa7_qdL-3" target="_O6d0NfKqS-Rmpa7_qdL-7">
          <mxGeometry relative="1" as="geometry" />
        </mxCell>
        <mxCell id="_O6d0NfKqS-Rmpa7_qdL-3" value="si edad &amp;gt;= 18 entonces" style="rhombus;whiteSpace=wrap;html=1;fillColor=#d5e8d4;strokeColor=#82b366;" vertex="1" parent="WIyWlLk6GJQsqaUBKTNV-1">
          <mxGeometry x="320" y="390" width="120" height="120" as="geometry" />
        </mxCell>
        <mxCell id="_O6d0NfKqS-Rmpa7_qdL-5" value="asignarle a la variable permitido que sea verdadero" style="rounded=1;whiteSpace=wrap;html=1;fillColor=#f8cecc;strokeColor=#b85450;" vertex="1" parent="WIyWlLk6GJQsqaUBKTNV-1">
          <mxGeometry x="550" y="410" width="120" height="80" as="geometry" />
        </mxCell>
        <mxCell id="_O6d0NfKqS-Rmpa7_qdL-11" value="" style="edgeStyle=orthogonalEdgeStyle;rounded=0;orthogonalLoop=1;jettySize=auto;html=1;" edge="1" parent="WIyWlLk6GJQsqaUBKTNV-1" source="_O6d0NfKqS-Rmpa7_qdL-7" target="_O6d0NfKqS-Rmpa7_qdL-10">
          <mxGeometry relative="1" as="geometry" />
        </mxCell>
        <mxCell id="_O6d0NfKqS-Rmpa7_qdL-7" value="asignarle la variable permitido que sea falso" style="rounded=1;whiteSpace=wrap;html=1;fillColor=#f8cecc;strokeColor=#b85450;" vertex="1" parent="WIyWlLk6GJQsqaUBKTNV-1">
          <mxGeometry x="320" y="600" width="120" height="60" as="geometry" />
        </mxCell>
        <mxCell id="_O6d0NfKqS-Rmpa7_qdL-13" value="" style="edgeStyle=orthogonalEdgeStyle;rounded=0;orthogonalLoop=1;jettySize=auto;html=1;" edge="1" parent="WIyWlLk6GJQsqaUBKTNV-1" source="_O6d0NfKqS-Rmpa7_qdL-10" target="_O6d0NfKqS-Rmpa7_qdL-12">
          <mxGeometry relative="1" as="geometry" />
        </mxCell>
        <mxCell id="_O6d0NfKqS-Rmpa7_qdL-18" value="" style="edgeStyle=orthogonalEdgeStyle;rounded=0;orthogonalLoop=1;jettySize=auto;html=1;" edge="1" parent="WIyWlLk6GJQsqaUBKTNV-1" source="_O6d0NfKqS-Rmpa7_qdL-10" target="_O6d0NfKqS-Rmpa7_qdL-17">
          <mxGeometry relative="1" as="geometry" />
        </mxCell>
        <mxCell id="_O6d0NfKqS-Rmpa7_qdL-10" value="Esta permitido el ingreso?" style="rhombus;whiteSpace=wrap;html=1;rounded=1;fillColor=#d5e8d4;strokeColor=#82b366;" vertex="1" parent="WIyWlLk6GJQsqaUBKTNV-1">
          <mxGeometry x="315" y="740" width="130" height="110" as="geometry" />
        </mxCell>
        <mxCell id="_O6d0NfKqS-Rmpa7_qdL-12" value="MostrarÂ  mensaje: &quot;El cliente puede ingresar a la discoteca&quot;" style="shape=parallelogram;perimeter=parallelogramPerimeter;whiteSpace=wrap;html=1;fixedSize=1;rounded=1;fillColor=#fff2cc;strokeColor=#d6b656;" vertex="1" parent="WIyWlLk6GJQsqaUBKTNV-1">
          <mxGeometry x="510" y="740" width="150" height="125" as="geometry" />
        </mxCell>
        <mxCell id="_O6d0NfKqS-Rmpa7_qdL-16" value="" style="endArrow=classic;startArrow=classic;html=1;rounded=0;entryX=0.5;entryY=1;entryDx=0;entryDy=0;" edge="1" parent="WIyWlLk6GJQsqaUBKTNV-1" target="_O6d0NfKqS-Rmpa7_qdL-5">
          <mxGeometry width="50" height="50" relative="1" as="geometry">
            <mxPoint x="380" y="700" as="sourcePoint" />
            <mxPoint x="440" y="660" as="targetPoint" />
            <Array as="points">
              <mxPoint x="610" y="700" />
            </Array>
          </mxGeometry>
        </mxCell>
        <mxCell id="_O6d0NfKqS-Rmpa7_qdL-20" value="" style="edgeStyle=orthogonalEdgeStyle;rounded=0;orthogonalLoop=1;jettySize=auto;html=1;" edge="1" parent="WIyWlLk6GJQsqaUBKTNV-1" source="_O6d0NfKqS-Rmpa7_qdL-17" target="_O6d0NfKqS-Rmpa7_qdL-19">
          <mxGeometry relative="1" as="geometry" />
        </mxCell>
        <mxCell id="_O6d0NfKqS-Rmpa7_qdL-17" value="No se puede ingresar a la discoteca siendo menor de edad" style="shape=parallelogram;perimeter=parallelogramPerimeter;whiteSpace=wrap;html=1;fixedSize=1;rounded=1;fillColor=#fff2cc;strokeColor=#d6b656;" vertex="1" parent="WIyWlLk6GJQsqaUBKTNV-1">
          <mxGeometry x="292.5" y="880" width="175" height="100" as="geometry" />
        </mxCell>
        <mxCell id="_O6d0NfKqS-Rmpa7_qdL-19" value="Fin&lt;div&gt;&lt;br&gt;&lt;/div&gt;" style="ellipse;whiteSpace=wrap;html=1;rounded=1;" vertex="1" parent="WIyWlLk6GJQsqaUBKTNV-1">
          <mxGeometry x="340" y="1062.5" width="80" height="80" as="geometry" />
        </mxCell>
      </root>
    </mxGraphModel>
  </diagram>
</mxfile>
